<mxfile host="Electron" agent="Mozilla/5.0 (Windows NT 10.0; Win64; x64) AppleWebKit/537.36 (KHTML, like Gecko) draw.io/26.2.2 Chrome/134.0.6998.178 Electron/35.1.2 Safari/537.36" version="26.2.2">
  <diagram name="ページ1" id="Y4fi4OfuNRBwAO22fUFv">
    <mxGraphModel dx="1576" dy="1032" grid="1" gridSize="10" guides="1" tooltips="1" connect="1" arrows="1" fold="1" page="1" pageScale="1" pageWidth="827" pageHeight="1169" math="0" shadow="0">
      <root>
        <mxCell id="0" />
        <mxCell id="1" parent="0" />
        <mxCell id="3sdHCL8Q7d2FP8Hg-KWN-9" value="ユーザー" style="shape=umlActor;verticalLabelPosition=bottom;verticalAlign=top;html=1;" vertex="1" parent="1">
          <mxGeometry x="40" y="250" width="30" height="60" as="geometry" />
        </mxCell>
        <mxCell id="3sdHCL8Q7d2FP8Hg-KWN-11" value="" style="endArrow=classic;html=1;rounded=0;entryX=0;entryY=0.533;entryDx=0;entryDy=0;entryPerimeter=0;" edge="1" parent="1" source="3sdHCL8Q7d2FP8Hg-KWN-9" target="3sdHCL8Q7d2FP8Hg-KWN-12">
          <mxGeometry width="50" height="50" relative="1" as="geometry">
            <mxPoint x="380" y="290" as="sourcePoint" />
            <mxPoint x="340" y="210" as="targetPoint" />
          </mxGeometry>
        </mxCell>
        <mxCell id="3sdHCL8Q7d2FP8Hg-KWN-12" value="新規登録画面" style="shape=umlBoundary;whiteSpace=wrap;html=1;" vertex="1" parent="1">
          <mxGeometry x="140" y="240" width="100" height="80" as="geometry" />
        </mxCell>
        <mxCell id="3sdHCL8Q7d2FP8Hg-KWN-14" value="新規登録" style="ellipse;shape=umlControl;whiteSpace=wrap;html=1;" vertex="1" parent="1">
          <mxGeometry x="440" y="230" width="82" height="90" as="geometry" />
        </mxCell>
        <mxCell id="3sdHCL8Q7d2FP8Hg-KWN-16" value="入力(ユーザID,パスワード&lt;div&gt;名前,学校名,所属名&lt;/div&gt;&lt;div&gt;メールアドレス,電話番号&lt;/div&gt;&lt;div&gt;年齢)を入力する&lt;/div&gt;" style="endArrow=classic;html=1;rounded=0;exitX=1.013;exitY=0.558;exitDx=0;exitDy=0;exitPerimeter=0;entryX=0.049;entryY=0.507;entryDx=0;entryDy=0;entryPerimeter=0;" edge="1" parent="1" source="3sdHCL8Q7d2FP8Hg-KWN-12" target="3sdHCL8Q7d2FP8Hg-KWN-14">
          <mxGeometry relative="1" as="geometry">
            <mxPoint x="360" y="220" as="sourcePoint" />
            <mxPoint x="460" y="220" as="targetPoint" />
          </mxGeometry>
        </mxCell>
        <mxCell id="3sdHCL8Q7d2FP8Hg-KWN-29" value="" style="endArrow=classic;startArrow=classic;html=1;rounded=0;exitX=0.496;exitY=0.137;exitDx=0;exitDy=0;exitPerimeter=0;entryX=0.5;entryY=1;entryDx=0;entryDy=0;" edge="1" parent="1" source="3sdHCL8Q7d2FP8Hg-KWN-14" target="3sdHCL8Q7d2FP8Hg-KWN-30">
          <mxGeometry width="50" height="50" relative="1" as="geometry">
            <mxPoint x="420" y="230" as="sourcePoint" />
            <mxPoint x="480" y="180" as="targetPoint" />
          </mxGeometry>
        </mxCell>
        <mxCell id="3sdHCL8Q7d2FP8Hg-KWN-30" value="訪問者" style="ellipse;shape=umlEntity;whiteSpace=wrap;html=1;" vertex="1" parent="1">
          <mxGeometry x="442" y="90" width="80" height="80" as="geometry" />
        </mxCell>
        <mxCell id="3sdHCL8Q7d2FP8Hg-KWN-32" value="" style="endArrow=classic;html=1;rounded=0;exitX=0.992;exitY=0.489;exitDx=0;exitDy=0;exitPerimeter=0;entryX=0;entryY=1;entryDx=0;entryDy=0;" edge="1" parent="1" source="3sdHCL8Q7d2FP8Hg-KWN-14" target="3sdHCL8Q7d2FP8Hg-KWN-33">
          <mxGeometry width="50" height="50" relative="1" as="geometry">
            <mxPoint x="410" y="230" as="sourcePoint" />
            <mxPoint x="590" y="200" as="targetPoint" />
          </mxGeometry>
        </mxCell>
        <mxCell id="3sdHCL8Q7d2FP8Hg-KWN-33" value="ユーザー&lt;div&gt;エンティティ&lt;/div&gt;" style="ellipse;shape=umlEntity;whiteSpace=wrap;html=1;" vertex="1" parent="1">
          <mxGeometry x="610" y="130" width="80" height="80" as="geometry" />
        </mxCell>
        <mxCell id="3sdHCL8Q7d2FP8Hg-KWN-35" value="保存" style="endArrow=classic;html=1;rounded=0;exitX=1;exitY=0.5;exitDx=0;exitDy=0;entryX=0;entryY=0.5;entryDx=0;entryDy=0;" edge="1" parent="1" source="3sdHCL8Q7d2FP8Hg-KWN-33" target="3sdHCL8Q7d2FP8Hg-KWN-37">
          <mxGeometry relative="1" as="geometry">
            <mxPoint x="390" y="210" as="sourcePoint" />
            <mxPoint x="750" y="170" as="targetPoint" />
          </mxGeometry>
        </mxCell>
        <mxCell id="3sdHCL8Q7d2FP8Hg-KWN-37" value="ユーザーDB" style="ellipse;shape=umlEntity;whiteSpace=wrap;html=1;" vertex="1" parent="1">
          <mxGeometry x="770" y="130" width="80" height="80" as="geometry" />
        </mxCell>
        <mxCell id="3sdHCL8Q7d2FP8Hg-KWN-38" value="表示" style="ellipse;shape=umlControl;whiteSpace=wrap;html=1;" vertex="1" parent="1">
          <mxGeometry x="372" y="370" width="70" height="80" as="geometry" />
        </mxCell>
        <mxCell id="3sdHCL8Q7d2FP8Hg-KWN-39" value="" style="endArrow=classic;html=1;rounded=0;entryX=0.6;entryY=0.108;entryDx=0;entryDy=0;entryPerimeter=0;exitX=0.26;exitY=0.963;exitDx=0;exitDy=0;exitPerimeter=0;" edge="1" parent="1" source="3sdHCL8Q7d2FP8Hg-KWN-14" target="3sdHCL8Q7d2FP8Hg-KWN-38">
          <mxGeometry width="50" height="50" relative="1" as="geometry">
            <mxPoint x="450" y="330" as="sourcePoint" />
            <mxPoint x="500" y="280" as="targetPoint" />
          </mxGeometry>
        </mxCell>
        <mxCell id="3sdHCL8Q7d2FP8Hg-KWN-40" value="登録完了画面" style="shape=umlBoundary;whiteSpace=wrap;html=1;" vertex="1" parent="1">
          <mxGeometry x="110" y="360" width="140" height="100" as="geometry" />
        </mxCell>
        <mxCell id="3sdHCL8Q7d2FP8Hg-KWN-41" value="" style="endArrow=classic;html=1;rounded=0;entryX=1.013;entryY=0.55;entryDx=0;entryDy=0;entryPerimeter=0;exitX=0;exitY=0.525;exitDx=0;exitDy=0;exitPerimeter=0;" edge="1" parent="1" source="3sdHCL8Q7d2FP8Hg-KWN-38" target="3sdHCL8Q7d2FP8Hg-KWN-40">
          <mxGeometry width="50" height="50" relative="1" as="geometry">
            <mxPoint x="450" y="330" as="sourcePoint" />
            <mxPoint x="500" y="280" as="targetPoint" />
          </mxGeometry>
        </mxCell>
        <mxCell id="3sdHCL8Q7d2FP8Hg-KWN-42" value="" style="endArrow=classic;html=1;rounded=0;exitX=0.592;exitY=0.97;exitDx=0;exitDy=0;exitPerimeter=0;" edge="1" parent="1" source="3sdHCL8Q7d2FP8Hg-KWN-14" target="3sdHCL8Q7d2FP8Hg-KWN-43">
          <mxGeometry width="50" height="50" relative="1" as="geometry">
            <mxPoint x="410" y="550" as="sourcePoint" />
            <mxPoint x="470" y="510" as="targetPoint" />
          </mxGeometry>
        </mxCell>
        <mxCell id="3sdHCL8Q7d2FP8Hg-KWN-43" value="Control Object" style="ellipse;shape=umlControl;whiteSpace=wrap;html=1;" vertex="1" parent="1">
          <mxGeometry x="360" y="505" width="70" height="80" as="geometry" />
        </mxCell>
        <mxCell id="3sdHCL8Q7d2FP8Hg-KWN-44" value="" style="endArrow=classic;html=1;rounded=0;exitX=0.071;exitY=0.654;exitDx=0;exitDy=0;exitPerimeter=0;entryX=0.981;entryY=0.497;entryDx=0;entryDy=0;entryPerimeter=0;" edge="1" parent="1" source="3sdHCL8Q7d2FP8Hg-KWN-43" target="3sdHCL8Q7d2FP8Hg-KWN-45">
          <mxGeometry width="50" height="50" relative="1" as="geometry">
            <mxPoint x="410" y="550" as="sourcePoint" />
            <mxPoint x="240" y="557" as="targetPoint" />
          </mxGeometry>
        </mxCell>
        <mxCell id="3sdHCL8Q7d2FP8Hg-KWN-45" value="エラーメッセージ付き新規登録&lt;div&gt;画面&lt;/div&gt;" style="shape=umlBoundary;whiteSpace=wrap;html=1;" vertex="1" parent="1">
          <mxGeometry x="100" y="510" width="130" height="100" as="geometry" />
        </mxCell>
      </root>
    </mxGraphModel>
  </diagram>
</mxfile>
